<?xml version="1.0" encoding="utf-8"?>
<!-- Generator: Adobe Illustrator 25.4.1, SVG Export Plug-In . SVG Version: 6.00 Build 0)  -->
<svg version="1.1" id="Capa_1" xmlns="http://www.w3.org/2000/svg" xmlns:xlink="http://www.w3.org/1999/xlink" x="0px" y="0px"
	 viewBox="0 0 350 150" style="enable-background:new 0 0 350 150;" xml:space="preserve">
<style type="text/css">
	.st0{fill:#1D1D1B;}
	
		.st1{clip-path:url(#SVGID_00000170965059463415088010000002250487722026910853_);fill:url(#SVGID_00000129884695377979192660000000588782791660292997_);}
	
		.st2{clip-path:url(#SVGID_00000170965059463415088010000002250487722026910853_);fill:url(#SVGID_00000120544643041634947260000000590213901019233154_);}
	
		.st3{clip-path:url(#SVGID_00000170965059463415088010000002250487722026910853_);fill:url(#SVGID_00000149377685886292908490000005080273537701109686_);}
	
		.st4{clip-path:url(#SVGID_00000170965059463415088010000002250487722026910853_);fill:url(#SVGID_00000147929300361579077120000013403376774546752407_);}
	.st5{fill:#F9F9F9;}
	.st6{fill:#FCFCFC;}
</style>
<path class="st0" d="M342,114.5c0,8.2-6.6,14.8-14.8,14.8H22.5c-8.2,0-14.8-6.6-14.8-14.8V34.7c0-8.2,6.6-14.8,14.8-14.8h304.7
	c8.2,0,14.8,6.6,14.8,14.8V114.5z"/>
<g id="PLAY_1_">
	<defs>
		<path id="SVGID_1_" d="M80.2,68l-15.1-8.7c0,0-27.5-15.9-29.1-16.8s-3.2-0.4-3.2,1.6c0,3.2,0,33.9,0,33.9s0,33.1,0,34.5
			c0,1.5,1.1,2.1,2.6,1.3c1.4-0.8,29.7-17.2,29.7-17.2l15.1-8.7c0,0,12.8-7.4,14.5-8.4c1.7-1,1.5-2.3,0.1-3.1
			C93.3,75.7,80.2,68,80.2,68z"/>
	</defs>
	<clipPath id="SVGID_00000016065423616510109530000005188812150439545751_">
		<use xlink:href="#SVGID_1_"  style="overflow:visible;"/>
	</clipPath>
	
		<linearGradient id="SVGID_00000085246317461648421870000007102726903268630452_" gradientUnits="userSpaceOnUse" x1="51.4676" y1="40.9534" x2="51.4676" y2="115.0019">
		<stop  offset="0" style="stop-color:#207AB0"/>
		<stop  offset="0.3206" style="stop-color:#4A98B5"/>
		<stop  offset="0.7782" style="stop-color:#81C0BB"/>
		<stop  offset="1" style="stop-color:#97CFBE"/>
	</linearGradient>
	
		<polygon style="clip-path:url(#SVGID_00000016065423616510109530000005188812150439545751_);fill:url(#SVGID_00000085246317461648421870000007102726903268630452_);" points="
		32.8,41 32.8,78 32.8,115 70.1,78 	"/>
	
		<linearGradient id="SVGID_00000058568360720653402820000013879920897262336146_" gradientUnits="userSpaceOnUse" x1="32.7979" y1="59.3312" x2="80.1665" y2="59.3312">
		<stop  offset="0" style="stop-color:#59BBAA"/>
		<stop  offset="1" style="stop-color:#E6E89A"/>
	</linearGradient>
	
		<polygon style="clip-path:url(#SVGID_00000016065423616510109530000005188812150439545751_);fill:url(#SVGID_00000058568360720653402820000013879920897262336146_);" points="
		80.2,68 65.1,59.3 32.8,40.7 32.8,41 70.1,78 	"/>
	
		<linearGradient id="SVGID_00000067925559985516766010000014236570528675415477_" gradientUnits="userSpaceOnUse" x1="56.4819" y1="77.9783" x2="56.4819" y2="115.2712">
		<stop  offset="0" style="stop-color:#E43332"/>
		<stop  offset="0.1636" style="stop-color:#D43643"/>
		<stop  offset="0.7271" style="stop-color:#A23E7A"/>
		<stop  offset="1" style="stop-color:#8E4190"/>
	</linearGradient>
	
		<polygon style="clip-path:url(#SVGID_00000016065423616510109530000005188812150439545751_);fill:url(#SVGID_00000067925559985516766010000014236570528675415477_);" points="
		32.8,115 32.8,115.3 65.1,96.6 80.2,87.9 70.1,78 	"/>
	
		<linearGradient id="SVGID_00000145027014287518179330000003708262952685223349_" gradientUnits="userSpaceOnUse" x1="83.7643" y1="68.0334" x2="83.7643" y2="87.9219">
		<stop  offset="0" style="stop-color:#F08779"/>
		<stop  offset="0.6326" style="stop-color:#F8B474"/>
		<stop  offset="1" style="stop-color:#FCCA72"/>
	</linearGradient>
	
		<polygon style="clip-path:url(#SVGID_00000016065423616510109530000005188812150439545751_);fill:url(#SVGID_00000145027014287518179330000003708262952685223349_);" points="
		80.2,68 70.1,78 80.2,87.9 97.4,78 	"/>
</g>
<g>
	<path class="st5" d="M267.9,92.5c-1.4,0-2.7-0.3-3.8-0.8c-1.2-0.5-2.1-1.3-2.9-2.4h-0.2c0.2,1.3,0.2,2.4,0.2,3.6v8.9h-3.3V70.5h2.7
		l0.5,2.9h0.2c0.8-1.2,1.8-2,2.9-2.6c1.1-0.5,2.4-0.8,3.8-0.8c2.9,0,5.1,1,6.6,2.9c1.6,2,2.3,4.7,2.3,8.2c0,3.5-0.8,6.3-2.4,8.2
		C272.9,91.5,270.7,92.5,267.9,92.5z M267.4,72.9c-2.2,0-3.8,0.6-4.8,1.8c-1,1.2-1.5,3.2-1.5,5.8v0.7c0,3,0.5,5.2,1.5,6.5
		c1,1.3,2.6,2,4.9,2c1.9,0,3.3-0.8,4.4-2.3c1.1-1.5,1.6-3.6,1.6-6.2c0-2.7-0.5-4.7-1.6-6.2C270.8,73.6,269.3,72.9,267.4,72.9z"/>
	<path class="st5" d="M284.4,92.1h-3.3V61.5h3.3V92.1z"/>
	<path class="st5" d="M303.1,92.1l-0.6-3.1h-0.2c-1.1,1.4-2.1,2.3-3.2,2.7c-1.1,0.5-2.4,0.7-4,0.7c-2.1,0-3.8-0.6-5-1.7
		c-1.2-1.1-1.8-2.7-1.8-4.7c0-4.3,3.5-6.6,10.4-6.8l3.7-0.1v-1.3c0-1.7-0.4-2.9-1.1-3.7c-0.7-0.8-1.9-1.2-3.5-1.2
		c-1.8,0-3.8,0.6-6.1,1.7l-1-2.5c1.1-0.6,2.2-1,3.5-1.4c1.3-0.3,2.5-0.5,3.8-0.5c2.6,0,4.5,0.6,5.7,1.7c1.2,1.1,1.9,3,1.9,5.5v14.7
		H303.1z M295.8,89.8c2,0,3.6-0.6,4.8-1.7c1.2-1.1,1.7-2.7,1.7-4.7v-1.9l-3.3,0.1c-2.6,0.1-4.5,0.5-5.6,1.2
		c-1.1,0.7-1.7,1.8-1.7,3.3c0,1.2,0.4,2.1,1.1,2.7C293.5,89.5,294.5,89.8,295.8,89.8z"/>
	<path class="st5" d="M307.4,70.5h3.5l4.7,12.3c1,2.8,1.7,4.8,1.9,6.1h0.2c0.2-0.7,0.5-1.8,1.1-3.4c0.5-1.6,2.3-6.6,5.3-14.9h3.5
		L318.4,95c-0.9,2.4-2,4.1-3.2,5.2c-1.2,1-2.7,1.5-4.5,1.5c-1,0-2-0.1-2.9-0.3v-2.6c0.7,0.2,1.5,0.2,2.4,0.2c2.2,0,3.8-1.3,4.8-3.8
		l1.2-3.1L307.4,70.5z"/>
</g>
<g>
	<path class="st5" d="M207.5,72.5c1,0.9,3.2,2.7,3.2,6.1c0,3.3-1.9,4.9-3.8,6.4c-0.6,0.6-1.3,1.2-1.3,2.2c0,1,0.7,1.5,1.2,1.9
		l1.6,1.3c2,1.7,3.8,3.2,3.8,6.3c0,4.2-4.1,8.5-11.8,8.5c-6.5,0-9.7-3.1-9.7-6.4c0-1.6,0.8-3.9,3.5-5.5c2.8-1.7,6.6-1.9,8.6-2.1
		c-0.6-0.8-1.4-1.7-1.4-3.1c0-0.8,0.2-1.2,0.5-1.8c-0.5,0-1,0.1-1.4,0.1c-4.8,0-7.5-3.6-7.5-7.1c0-2.1,0.9-4.4,2.9-6
		c2.6-2.1,5.6-2.5,8.1-2.5h9.3l-2.9,1.6H207.5z M204.3,92.5c-0.4,0-0.6,0-1,0c-0.4,0-2.8,0.1-4.7,0.7c-1,0.4-3.9,1.4-3.9,4.6
		c0,3.2,3.1,5.5,7.9,5.5c4.3,0,6.6-2.1,6.6-4.9C209.2,96.2,207.7,95,204.3,92.5z M205.6,84c1-1,1.1-2.5,1.1-3.3
		c0-3.2-1.9-8.3-5.7-8.3c-1.2,0-2.4,0.6-3.2,1.5c-0.8,0.9-1,2.2-1,3.3c0,3,1.8,8,5.6,8C203.6,85.2,204.8,84.7,205.6,84z"/>
	<path class="st5" d="M179.1,91.8c-7.1,0-11-5.6-11-10.6c0-5.9,4.8-10.9,11.6-10.9c6.6,0,10.7,5.2,10.7,10.6
		C190.5,86.2,186.4,91.8,179.1,91.8z M184.7,88.2c1.1-1.4,1.4-3.2,1.4-5c0-4-1.9-11.5-7.5-11.5c-1.5,0-3,0.6-4,1.5
		c-1.8,1.6-2.1,3.6-2.1,5.5c0,4.4,2.2,11.8,7.6,11.8C181.9,90.5,183.7,89.6,184.7,88.2z"/>
	<path class="st5" d="M154.7,91.8c-7.2,0-11-5.6-11-10.6c0-5.9,4.8-10.9,11.6-10.9c6.6,0,10.7,5.2,10.7,10.6
		C166.1,86.2,162.1,91.8,154.7,91.8z M160.3,88.2c1.1-1.4,1.3-3.2,1.3-5c0-4-1.9-11.5-7.5-11.5c-1.5,0-3,0.6-4,1.5
		c-1.8,1.6-2.1,3.6-2.1,5.5c0,4.4,2.2,11.8,7.6,11.8C157.5,90.5,159.3,89.6,160.3,88.2z"/>
	<path class="st5" d="M140.3,91.1l-6.5,1.5c-2.6,0.4-5,0.8-7.5,0.8c-12.5,0-17.2-9.2-17.2-16.4c0-8.8,6.7-16.9,18.3-16.9
		c2.4,0,4.8,0.4,6.9,0.9c3.4,0.9,5,2.1,6,2.8l-3.8,3.6l-1.6,0.4l1.1-1.8c-1.5-1.5-4.3-4.2-9.7-4.2c-7.1,0-12.5,5.4-12.5,13.3
		c0,8.5,6.1,16.5,16,16.5c2.9,0,4.4-0.6,5.7-1.1v-7.3l-6.8,0.4l3.6-1.9h9.6l-1.2,1.1c-0.3,0.3-0.4,0.4-0.5,0.7
		c0,0.4-0.1,1.7-0.1,2.2V91.1z"/>
	<path class="st5" d="M221.7,89.8c-1.5-0.1-1.8-0.4-1.8-2.2v-0.5V62c0-0.1,0-0.2,0-0.3c0.2-1.6,0.6-1.9,2-2.7h-6.5l-3.4,1.6h3.5v0
		l0,0v26.4v1.5c0,0.9-0.2,1-1.2,2.4h8l1.7-1C223.3,89.9,222.5,89.9,221.7,89.8z"/>
	<path class="st5" d="M240.1,90.2c-0.5,0.3-1,0.6-1.5,0.8c-1.5,0.7-3,0.9-4.4,0.9c-1.4,0-3.7-0.1-6-1.8c-3.2-2.2-4.6-6.1-4.6-9.5
		c0-7,5.7-10.4,10.3-10.4c1.6,0,3.3,0.4,4.6,1.3c2.2,1.5,2.8,3.4,3.1,4.4l-10.5,4.3l-3.5,0.3c1.1,5.7,5,9,9.2,9c2.3,0,4-0.8,5.5-1.6
		L240.1,90.2z M235.9,76.8c0.9-0.3,1.3-0.6,1.3-1.2c0-1.8-2-3.9-4.4-3.9c-1.8,0-5.2,1.4-5.2,6.2c0,0.8,0.1,1.6,0.1,2.4L235.9,76.8z"
		/>
	<g>
		<path class="st5" d="M244.5,70.6v3h-0.4v-3h-1v-0.3h2.3v0.3H244.5z"/>
		<path class="st5" d="M248.5,73.5v-3h0l-0.9,3h-0.3l-0.9-3h0v3H246v-3.3h0.6l0.8,2.6h0l0.8-2.6h0.6v3.3H248.5z"/>
	</g>
</g>
<g>
	<path class="st6" d="M118.1,51.3h-2.2c0-0.3-0.2-1.2-0.6-2.6H112c-0.4,1.4-0.7,2.3-0.7,2.6h-2.1c0-0.2,0.5-1.7,1.6-4.5
		c1.1-2.8,1.6-4.4,1.6-4.6h2.7c0,0.3,0.5,1.8,1.5,4.6C117.6,49.5,118.1,51,118.1,51.3z M114.9,47.3c-0.8-2.4-1.2-3.7-1.2-3.9h-0.1
		c0,0.2-0.4,1.5-1.2,3.9H114.9z"/>
	<path class="st6" d="M127.2,51.3h-1.7c0-0.2-0.6-1.2-1.9-3c-1.3-1.9-2.1-3.3-2.3-4h-0.1c0.1,1,0.2,2,0.2,2.8c0,1.2,0,2.6,0.1,4.2
		h-1.7c0.1-1.5,0.1-3,0.1-4.8c0-1.7,0-3.2-0.1-4.4h2.1c0,0.2,0.6,1.2,1.7,3c1.2,1.8,1.9,3.1,2.1,3.7h0.1c-0.1-1-0.2-2-0.2-2.8
		c0-1.3,0-2.6-0.1-3.9h1.8c-0.1,1.2-0.1,2.6-0.1,4.4C127.1,48.3,127.1,49.9,127.2,51.3z"/>
	<path class="st6" d="M137.4,46.4c0,1.3-0.4,2.5-1.3,3.5c-0.9,1-2,1.5-3.6,1.5c-0.7,0-1.6,0-2.9-0.1c0.1-1.4,0.1-3,0.1-4.8
		c0-1.7,0-3.2-0.1-4.4h1.2c0.2,0,0.5,0,0.9,0c0.4,0,0.7,0,0.8,0c1.7,0,2.9,0.4,3.7,1.3C137,44.2,137.4,45.2,137.4,46.4z M135.5,46.7
		c0-0.9-0.3-1.7-0.8-2.3c-0.5-0.6-1.3-0.9-2.4-0.9c-0.2,0-0.5,0-0.8,0.1c0,0.9,0.1,1.9,0.1,2.9c0,1.1,0,2.2,0.1,3.3
		c0.3,0.1,0.6,0.1,0.9,0.1c1,0,1.8-0.3,2.2-0.9C135.2,48.4,135.5,47.6,135.5,46.7z"/>
	<path class="st6" d="M146.8,51.3h-2.1c-0.5-1.7-1-2.7-1.2-3.1c-0.3-0.4-0.8-0.6-1.4-0.6c-0.3,0-0.5,0-0.8,0c0,1.2,0,2.4,0.1,3.6h-2
		c0.1-1.4,0.1-3,0.1-4.8c0-1.7,0-3.2-0.1-4.4h1.2c0.1,0,0.4,0,0.9,0c0.4,0,0.9,0,1.2,0c2.1,0,3.2,0.7,3.2,2.2c0,1.2-0.6,2-1.8,2.4
		v0.1c0.5,0.1,0.9,0.5,1.2,1.1C145.7,48.6,146.2,49.7,146.8,51.3z M144.1,44.8c0-0.9-0.6-1.4-1.8-1.4c-0.4,0-0.8,0-1.2,0.1
		c0.1,0.7,0.1,1.7,0.1,2.8c0.3,0,0.5,0,0.7,0C143.4,46.4,144.1,45.9,144.1,44.8z"/>
	<path class="st6" d="M156.8,46.5c0,1.4-0.4,2.6-1.3,3.6c-0.9,0.9-2,1.4-3.3,1.4c-1.2,0-2.3-0.4-3.1-1.3c-0.8-0.9-1.2-2-1.2-3.3
		c0-1.4,0.4-2.6,1.3-3.6c0.9-0.9,2-1.4,3.3-1.4c1.2,0,2.3,0.4,3.1,1.3C156.4,44.1,156.8,45.2,156.8,46.5z M154.9,46.7
		c0-1-0.3-1.8-0.8-2.4c-0.5-0.6-1.1-0.9-1.9-0.9c-0.7,0-1.3,0.3-1.7,0.9c-0.5,0.6-0.7,1.4-0.7,2.3c0,1,0.3,1.8,0.8,2.4
		c0.5,0.6,1.1,0.9,1.8,0.9c0.7,0,1.3-0.3,1.7-0.9C154.6,48.5,154.9,47.7,154.9,46.7z"/>
	<path class="st6" d="M160.8,51.3h-2c0.1-1.5,0.1-3,0.1-4.8c0-1.7,0-3.2-0.1-4.4h2c-0.1,1.2-0.1,2.6-0.1,4.4
		C160.7,48.3,160.7,49.9,160.8,51.3z"/>
	<path class="st6" d="M171,46.4c0,1.3-0.4,2.5-1.3,3.5c-0.9,1-2,1.5-3.6,1.5c-0.7,0-1.6,0-2.9-0.1c0.1-1.4,0.1-3,0.1-4.8
		c0-1.7,0-3.2-0.1-4.4h1.2c0.2,0,0.5,0,0.9,0c0.4,0,0.7,0,0.8,0c1.7,0,2.9,0.4,3.7,1.3C170.6,44.2,171,45.2,171,46.4z M169,46.7
		c0-0.9-0.3-1.7-0.8-2.3c-0.5-0.6-1.3-0.9-2.4-0.9c-0.2,0-0.5,0-0.8,0.1c0,0.9,0.1,1.9,0.1,2.9c0,1.1,0,2.2,0.1,3.3
		c0.3,0.1,0.6,0.1,0.9,0.1c1,0,1.8-0.3,2.2-0.9C168.8,48.4,169,47.6,169,46.7z"/>
	<path class="st6" d="M184.5,51.3h-2.2c0-0.3-0.2-1.2-0.6-2.6h-3.2c-0.4,1.4-0.7,2.3-0.7,2.6h-2.1c0-0.2,0.5-1.7,1.6-4.5
		c1.1-2.8,1.6-4.4,1.6-4.6h2.7c0,0.3,0.5,1.8,1.5,4.6C184,49.5,184.5,51,184.5,51.3z M181.2,47.3c-0.8-2.4-1.2-3.7-1.2-3.9h-0.1
		c0,0.2-0.4,1.5-1.2,3.9H181.2z"/>
	<path class="st6" d="M192.7,44.5c0,1.1-0.4,1.9-1.2,2.5c-0.8,0.5-1.8,0.8-3.1,0.8c-0.2,0-0.4,0-0.5,0c0,0.9,0,2,0.1,3.5h-2
		c0.1-1.4,0.1-2.9,0.1-4.8c0-1.7,0-3.1-0.1-4.4h1.2c0.2,0,0.5,0,1,0c0.5,0,0.9,0,1.3,0c0.9,0,1.6,0.2,2.3,0.6
		C192.3,43.1,192.7,43.7,192.7,44.5z M190.8,44.9c0-1-0.7-1.5-2-1.5c-0.3,0-0.7,0-1.1,0.1c0.1,0.9,0.1,1.9,0.1,3c0.1,0,0.3,0,0.4,0
		C190,46.5,190.8,46,190.8,44.9z"/>
	<path class="st6" d="M201.1,44.5c0,1.1-0.4,1.9-1.2,2.5c-0.8,0.5-1.9,0.8-3.1,0.8c-0.2,0-0.4,0-0.5,0c0,0.9,0,2,0.1,3.5h-2
		c0.1-1.4,0.1-2.9,0.1-4.8c0-1.7,0-3.1-0.1-4.4h1.2c0.2,0,0.5,0,1,0c0.5,0,0.9,0,1.3,0c0.9,0,1.6,0.2,2.3,0.6
		C200.8,43.1,201.1,43.7,201.1,44.5z M199.3,44.9c0-1-0.7-1.5-2-1.5c-0.3,0-0.7,0-1.1,0.1c0.1,0.9,0.1,1.9,0.1,3c0.1,0,0.3,0,0.4,0
		C198.4,46.5,199.3,46,199.3,44.9z"/>
	<path class="st6" d="M214.8,46.5c0,1.4-0.4,2.6-1.3,3.6c-0.9,0.9-2,1.4-3.3,1.4c-1.2,0-2.3-0.4-3.1-1.3c-0.8-0.9-1.2-2-1.2-3.3
		c0-1.4,0.4-2.6,1.3-3.6c0.9-0.9,2-1.4,3.3-1.4c1.2,0,2.3,0.4,3.1,1.3C214.4,44.1,214.8,45.2,214.8,46.5z M212.9,46.7
		c0-1-0.3-1.8-0.8-2.4c-0.5-0.6-1.1-0.9-1.9-0.9c-0.7,0-1.3,0.3-1.7,0.9c-0.5,0.6-0.7,1.4-0.7,2.3c0,1,0.3,1.8,0.8,2.4
		c0.5,0.6,1.1,0.9,1.8,0.9c0.7,0,1.3-0.3,1.7-0.9C212.7,48.5,212.9,47.7,212.9,46.7z"/>
	<path class="st6" d="M224.4,51.3h-1.7c0-0.2-0.6-1.2-1.9-3c-1.3-1.9-2.1-3.3-2.3-4h-0.1c0.1,1,0.2,2,0.2,2.8c0,1.2,0,2.6,0.1,4.2
		h-1.7c0.1-1.5,0.1-3,0.1-4.8c0-1.7,0-3.2-0.1-4.4h2.1c0,0.2,0.6,1.2,1.7,3c1.2,1.8,1.9,3.1,2.1,3.7h0.1c-0.1-1-0.2-2-0.2-2.8
		c0-1.3,0-2.6-0.1-3.9h1.8c-0.1,1.2-0.1,2.6-0.1,4.4C224.3,48.3,224.3,49.9,224.4,51.3z"/>
</g>
</svg>
