<?xml version="1.0" encoding="utf-8"?>
<!-- Generator: Adobe Illustrator 25.4.1, SVG Export Plug-In . SVG Version: 6.00 Build 0)  -->
<svg version="1.1" id="Capa_1" xmlns="http://www.w3.org/2000/svg" xmlns:xlink="http://www.w3.org/1999/xlink" x="0px" y="0px"
	 viewBox="0 0 250 250" style="enable-background:new 0 0 250 250;" xml:space="preserve">
<style type="text/css">
	.st0{fill-rule:evenodd;clip-rule:evenodd;fill:#FFFFFF;}
	.st1{fill-rule:evenodd;clip-rule:evenodd;fill:#E44F37;}
	.st2{fill-rule:evenodd;clip-rule:evenodd;fill:none;}
</style>
<g>
	<path class="st0" d="M99.3,179.4c-13.1-22.7-26.2-45.5-39.4-68.2C44.2,84,28.5,56.8,12.7,29.7c-1.1-2-1-2.4,1.4-2.4
		c4.8,0.1,9.5,0.1,14.3,0c1.7,0,2.7,0.6,3.5,2C46,53.4,60.2,77.5,74.4,101.6c8.2,13.9,16.4,27.7,24.5,41.6c1,1.8,1.5,1.9,2.6,0
		c7.6-12.6,15.3-25.1,23-37.7c0.2-0.4,0.5-0.7,1-1.3c8.4,14.2,16.6,28.2,25.1,42.6c4.2-7.2,8.1-14.1,12-20.9
		c18.4-32,36.9-64.1,55.3-96.1c1-1.7,1.6-2.5,3.7-2.4c4.8,0.2,9.9,0.1,14.7,0c2.1,0,2.1,0.5,1.1,2.1c-15.6,26.9-31.2,53.8-46.8,80.7
		c-12.8,22.1-25.6,44.2-38.3,66.2c-1.7,2.9-1.7,2.9-3.5,0c-7.4-12.2-14.8-24.3-22.3-36.5c-0.3-0.5-0.4-1.3-1.5-1.4
		c-4.6,7.8-9.3,15.7-13.9,23.7c-3.4,5.9-6.8,11.8-10.2,17.6C100.1,180.7,99.8,179.9,99.3,179.4z"/>
	<path class="st1" d="M116.5,76.6c1.6,0,2.4,0,3.3,0c13.8,0,27.6,0,41.4,0c2.4,0,2.4-0.1,1.4,1.8c-6.6,11.7-14.3,25.2-20.8,37
		c-0.5,0.9-0.9,0.9-0.2,2.2c3.3,6.4,2.7,9,9.3,20.2c20.8-36.5,42-73.7,62.9-110.3c-3.9,0-8.3-0.1-11.6-0.1c-26.6,0-53.2,0-79.8,0
		c-2.3,0-2.8,0.4-1.7,2.6c1.8,3.7,3.5,7.4,5.1,11.2c0.8,2,1.9,2.5,4,2.5c16.9-0.1,33.8,0,50.7-0.1c2.3,0,2.9,0.3,1.6,2.5
		c-1.8,3.2-3.5,6.6-5,10c-0.8,1.8-1.9,2.4-3.8,2.5c-12.9,0.3-31.7,1-44.6,1.1C128.5,59.5,114.9,76.6,116.5,76.6z"/>
	<path class="st1" d="M123.6,223c-6.1-12.2-12.2-24.3-18.3-36.4c-0.5-1.1-0.5-1.8,0.1-2.8c5.8-9.7,11.6-19.5,17.3-29.3
		c0.8-1.4,1.2-1.6,2.2-0.1c6.2,10.3,12.5,20.5,18.8,30.7c0.8,1.2,0.6,2.1,0,3.3c-6.3,11.2-12.6,22.4-18.9,33.5
		C124.6,222.4,124.5,222.9,123.6,223z"/>
	<path class="st2" d="M99.3,179.4c0.5,0.3,0.9,0.8,1.6,0.5c0,0.5-0.3,0.9-0.7,0.9C99.4,180.7,99.3,180,99.3,179.4z"/>
	<path class="st0" d="M100.2,135c-3.8-6.4-7.3-12.3-10.9-18.3C72.3,87.7,55.2,58.8,38.1,29.9c-0.4-0.7-1.4-1.3-0.8-2.2
		c0.4-0.7,1.4-0.3,2.1-0.3c23.7,0,47.4,0,71.1-0.1c1.8,0,2.6,0.5,3.3,2.2c2.5,5.9,5.1,11.8,7.7,17.6c0.7,1.6,0.7,2.8-0.3,4.3
		c-8.2,12.9-16.2,25.9-24.3,38.8c-0.9,1.5-0.9,2.5-0.1,4c4.3,7.6,8.6,15.3,12.8,22.9c0.4,0.7,1.1,1.4,0.5,2.3
		C106.9,124.5,103.7,129.6,100.2,135z M66.4,43.6c13.8,0,27.2,0,40.4,0c0.5,0.7,0,1.1-0.3,1.5C100,54.2,93.4,63.3,87,72.4
		c-1.1,1.6-1.7,2.1-2.9,0c-5.6-9.1-11.3-18.2-16.9-27.3C66.9,44.7,66.8,44.3,66.4,43.6z"/>
</g>
</svg>
